<?xml version="1.0" encoding="UTF-8"?>
<svg width="512" height="512" viewBox="0 0 512 512" xmlns="http://www.w3.org/2000/svg">
  <defs>
    <!-- 黑色背景渐变 -->
    <linearGradient id="blackBg" x1="0%" y1="0%" x2="100%" y2="100%">
      <stop offset="0%" style="stop-color:#2a2a2a;stop-opacity:1" />
      <stop offset="50%" style="stop-color:#1a1a1a;stop-opacity:1" />
      <stop offset="100%" style="stop-color:#000000;stop-opacity:1" />
    </linearGradient>
    
    <!-- 红色圆点渐变 -->
    <radialGradient id="redDot" cx="50%" cy="30%" r="70%">
      <stop offset="0%" style="stop-color:#ff4444;stop-opacity:1" />
      <stop offset="70%" style="stop-color:#ee0000;stop-opacity:1" />
      <stop offset="100%" style="stop-color:#cc0000;stop-opacity:1" />
    </radialGradient>
    
    <!-- 阴影滤镜 -->
    <filter id="shadow" x="-50%" y="-50%" width="200%" height="200%">
      <feDropShadow dx="0" dy="8" stdDeviation="12" flood-color="#000000" flood-opacity="0.3"/>
    </filter>
    
    <!-- 内发光滤镜 -->
    <filter id="innerGlow" x="-50%" y="-50%" width="200%" height="200%">
      <feGaussianBlur stdDeviation="2" result="coloredBlur"/>
      <feMerge>
        <feMergeNode in="coloredBlur"/>
        <feMergeNode in="SourceGraphic"/>
      </feMerge>
    </filter>
  </defs>
  
  <!-- 主背景 - 圆角矩形 -->
  <rect x="30" y="30" width="452" height="452" rx="80" ry="80" 
        fill="url(#blackBg)" 
        filter="url(#shadow)" />
  
  <!-- 内层高光边框 -->
  <rect x="35" y="35" width="442" height="442" rx="75" ry="75" 
        fill="none" 
        stroke="rgba(255,255,255,0.08)" 
        stroke-width="2" />
  
  <!-- 分享图标 - 三个连接的圆点 -->
  <g transform="translate(256,256)" fill="#ffffff" filter="url(#innerGlow)">
    <!-- 左上角圆点 -->
    <circle cx="-60" cy="-40" r="20" />
    
    <!-- 右上角圆点 -->
    <circle cx="60" cy="-40" r="20" />
    
    <!-- 底部中心圆点 -->
    <circle cx="0" cy="50" r="20" />
    
    <!-- 连接线 -->
    <!-- 左上到右上的连接线 -->
    <rect x="-50" y="-44" width="100" height="8" rx="4" />
    
    <!-- 左上到底部的连接线 -->
    <rect x="-54" y="-25" width="8" height="60" rx="4" 
          transform="rotate(-25 -50 5)" />
    
    <!-- 右上到底部的连接线 -->
    <rect x="46" y="-25" width="8" height="60" rx="4" 
          transform="rotate(25 50 5)" />
  </g>
  
  <!-- 红色通知圆点 -->
  <circle cx="420" cy="92" r="35" 
          fill="url(#redDot)" 
          filter="url(#shadow)" />
  
  <!-- 红色圆点高光 -->
  <circle cx="415" cy="87" r="8" 
          fill="rgba(255,255,255,0.4)" />
  
  <!-- 外层光晕 -->
  <rect x="25" y="25" width="462" height="462" rx="85" ry="85" 
        fill="none" 
        stroke="rgba(255,255,255,0.05)" 
        stroke-width="3" />
</svg> 